<svg xmlns="http://www.w3.org/2000/svg" viewBox="0 0 800 450" font-family="system-ui,-apple-system,sans-serif">
  <defs>
    <linearGradient id="headerGrad" x1="0" y1="0" x2="1" y2="0">
      <stop offset="0%" stop-color="#1e40af"/>
      <stop offset="100%" stop-color="#3b82f6"/>
    </linearGradient>
  </defs>

  <!-- Background -->
  <rect width="800" height="450" fill="#f8fafc"/>

  <!-- Top header bar -->
  <rect width="800" height="58" fill="url(#headerGrad)"/>

  <!-- Logo -->
  <rect x="16" y="14" width="28" height="28" rx="6" fill="rgba(255,255,255,0.2)"/>
  <text x="30" y="33" fill="#fff" font-size="13" font-weight="800" text-anchor="middle">R</text>
  <text x="52" y="33" fill="#fff" font-size="14" font-weight="700">RDP TestEngine</text>

  <!-- Test name -->
  <text x="400" y="28" fill="rgba(255,255,255,0.9)" font-size="13" font-weight="600" text-anchor="middle">JEE Advanced 2025 — Full Mock Test #7</text>

  <!-- Timer -->
  <rect x="620" y="12" width="100" height="34" rx="8" fill="rgba(0,0,0,0.25)"/>
  <text x="670" y="29" fill="#fbbf24" font-size="12" font-weight="800" text-anchor="middle">⏱ 00:42:18</text>
  <text x="670" y="44" fill="rgba(255,255,255,0.7)" font-size="10" text-anchor="middle">remaining</text>

  <!-- Submit button -->
  <rect x="730" y="14" width="58" height="30" rx="6" fill="#ef4444"/>
  <text x="759" y="33" fill="#fff" font-size="12" font-weight="700" text-anchor="middle">Submit</text>

  <!-- Subject tabs -->
  <rect x="0" y="58" width="800" height="40" fill="#ffffff" stroke="#e2e8f0" stroke-width="1"/>
  <rect x="0" y="94" width="800" height="1" fill="#e2e8f0"/>

  <!-- Tab: Physics (active) -->
  <rect x="10" y="64" width="88" height="28" rx="6" fill="#1e40af"/>
  <text x="54" y="82" fill="#ffffff" font-size="12" font-weight="700" text-anchor="middle">Physics</text>

  <!-- Tab: Chemistry -->
  <rect x="106" y="64" width="100" height="28" rx="6" fill="#f1f5f9"/>
  <text x="156" y="82" fill="#64748b" font-size="12" font-weight="500" text-anchor="middle">Chemistry</text>

  <!-- Tab: Mathematics -->
  <rect x="214" y="64" width="108" height="28" rx="6" fill="#f1f5f9"/>
  <text x="268" y="82" fill="#64748b" font-size="12" font-weight="500" text-anchor="middle">Mathematics</text>

  <!-- Progress -->
  <text x="500" y="82" fill="#64748b" font-size="12">Question 23 of 50</text>
  <!-- Progress bar -->
  <rect x="608" y="74" width="180" height="8" rx="4" fill="#e2e8f0"/>
  <rect x="608" y="74" width="82" height="8" rx="4" fill="#1e40af"/>
  <text x="748" y="84" fill="#1e40af" font-size="11" font-weight="600">46%</text>

  <!-- Main Content -->
  <rect x="0" y="98" width="520" height="352" fill="#ffffff"/>

  <!-- Question number + marks -->
  <rect x="20" y="116" width="52" height="22" rx="4" fill="#eff6ff" stroke="#bfdbfe" stroke-width="1"/>
  <text x="46" y="131" fill="#1e40af" font-size="11" font-weight="700" text-anchor="middle">Q.23</text>
  <rect x="80" y="116" width="68" height="22" rx="4" fill="#f0fdf4" stroke="#bbf7d0" stroke-width="1"/>
  <text x="114" y="131" fill="#166534" font-size="11" font-weight="600" text-anchor="middle">+4 / -1</text>

  <!-- Question text -->
  <text x="20" y="162" fill="#1e293b" font-size="14" font-weight="600">A particle is projected with initial velocity v₀ at an angle θ = 45° to the</text>
  <text x="20" y="180" fill="#1e293b" font-size="14" font-weight="600">horizontal. The ratio of kinetic energy at maximum height to the initial</text>
  <text x="20" y="198" fill="#1e293b" font-size="14" font-weight="600">kinetic energy is:</text>

  <!-- Options -->
  <!-- Option A - selected -->
  <rect x="20" y="218" width="476" height="42" rx="8" fill="#eff6ff" stroke="#3b82f6" stroke-width="2"/>
  <circle cx="44" cy="239" r="10" fill="#3b82f6"/>
  <text x="44" y="243" fill="#fff" font-size="11" font-weight="800" text-anchor="middle">A</text>
  <text x="62" y="239" fill="#1e293b" font-size="13.5" dominant-baseline="middle">  1/2  (KE is halved at max height)</text>

  <!-- Option B -->
  <rect x="20" y="268" width="476" height="42" rx="8" fill="#f8fafc" stroke="#e2e8f0" stroke-width="1.5"/>
  <circle cx="44" cy="289" r="10" fill="#e2e8f0"/>
  <text x="44" y="293" fill="#64748b" font-size="11" font-weight="800" text-anchor="middle">B</text>
  <text x="62" y="289" fill="#1e293b" font-size="13.5" dominant-baseline="middle">  1/4  (reduced by factor of 4)</text>

  <!-- Option C -->
  <rect x="20" y="318" width="476" height="42" rx="8" fill="#f8fafc" stroke="#e2e8f0" stroke-width="1.5"/>
  <circle cx="44" cy="339" r="10" fill="#e2e8f0"/>
  <text x="44" y="343" fill="#64748b" font-size="11" font-weight="800" text-anchor="middle">C</text>
  <text x="62" y="339" fill="#1e293b" font-size="13.5" dominant-baseline="middle">  0  (particle stops momentarily)</text>

  <!-- Option D -->
  <rect x="20" y="368" width="476" height="42" rx="8" fill="#f8fafc" stroke="#e2e8f0" stroke-width="1.5"/>
  <circle cx="44" cy="389" r="10" fill="#e2e8f0"/>
  <text x="44" y="393" fill="#64748b" font-size="11" font-weight="800" text-anchor="middle">D</text>
  <text x="62" y="389" fill="#1e293b" font-size="13.5" dominant-baseline="middle">  3/4  (only horizontal component remains)</text>

  <!-- Prev / Next buttons -->
  <rect x="20" y="422" width="90" height="22" rx="5" fill="#f1f5f9" stroke="#e2e8f0" stroke-width="1"/>
  <text x="65" y="437" fill="#64748b" font-size="12" font-weight="600" text-anchor="middle">← Previous</text>
  <rect x="406" y="422" width="90" height="22" rx="5" fill="#1e40af"/>
  <text x="451" y="437" fill="#fff" font-size="12" font-weight="600" text-anchor="middle">Next →</text>
  <rect x="226" y="422" width="70" height="22" rx="5" fill="#fef3c7" stroke="#fde68a" stroke-width="1"/>
  <text x="261" y="437" fill="#92400e" font-size="12" font-weight="600" text-anchor="middle">Mark</text>

  <!-- Right panel: Question navigator -->
  <rect x="520" y="98" width="280" height="352" fill="#f8fafc" stroke="#e2e8f0" stroke-width="1"/>
  <text x="538" y="122" fill="#1e293b" font-size="13" font-weight="700">Question Navigator</text>

  <!-- Legend -->
  <circle cx="540" cy="142" r="7" fill="#1e40af"/>
  <text x="552" y="146" fill="#64748b" font-size="11">Attempted (23)</text>
  <circle cx="660" cy="142" r="7" fill="#f59e0b"/>
  <text x="672" y="146" fill="#64748b" font-size="11">Marked (6)</text>
  <circle cx="540" cy="162" r="7" fill="#e2e8f0"/>
  <text x="552" y="166" fill="#64748b" font-size="11">Not visited (18)</text>
  <circle cx="660" cy="162" r="7" fill="#ef4444"/>
  <text x="672" y="166" fill="#64748b" font-size="11">Skipped (3)</text>

  <!-- Question dots grid (5 cols × 10 rows = 50 questions) -->
  <!-- Row 1: 1–10 -->
  <circle cx="546" cy="198" r="11" fill="#1e40af"/><text x="546" y="202" fill="#fff" font-size="10" text-anchor="middle">1</text>
  <circle cx="574" cy="198" r="11" fill="#1e40af"/><text x="574" y="202" fill="#fff" font-size="10" text-anchor="middle">2</text>
  <circle cx="602" cy="198" r="11" fill="#1e40af"/><text x="602" y="202" fill="#fff" font-size="10" text-anchor="middle">3</text>
  <circle cx="630" cy="198" r="11" fill="#1e40af"/><text x="630" y="202" fill="#fff" font-size="10" text-anchor="middle">4</text>
  <circle cx="658" cy="198" r="11" fill="#1e40af"/><text x="658" y="202" fill="#fff" font-size="10" text-anchor="middle">5</text>
  <circle cx="686" cy="198" r="11" fill="#f59e0b"/><text x="686" y="202" fill="#fff" font-size="10" text-anchor="middle">6</text>
  <circle cx="714" cy="198" r="11" fill="#1e40af"/><text x="714" y="202" fill="#fff" font-size="10" text-anchor="middle">7</text>
  <circle cx="742" cy="198" r="11" fill="#1e40af"/><text x="742" y="202" fill="#fff" font-size="10" text-anchor="middle">8</text>
  <circle cx="770" cy="198" r="11" fill="#ef4444"/><text x="770" y="202" fill="#fff" font-size="10" text-anchor="middle">9</text>

  <!-- Row 2: 10–18 -->
  <circle cx="546" cy="228" r="11" fill="#1e40af"/><text x="546" y="232" fill="#fff" font-size="10" text-anchor="middle">10</text>
  <circle cx="574" cy="228" r="11" fill="#f59e0b"/><text x="574" y="232" fill="#fff" font-size="10" text-anchor="middle">11</text>
  <circle cx="602" cy="228" r="11" fill="#1e40af"/><text x="602" y="232" fill="#fff" font-size="10" text-anchor="middle">12</text>
  <circle cx="630" cy="228" r="11" fill="#1e40af"/><text x="630" y="232" fill="#fff" font-size="10" text-anchor="middle">13</text>
  <circle cx="658" cy="228" r="11" fill="#1e40af"/><text x="658" y="232" fill="#fff" font-size="10" text-anchor="middle">14</text>
  <circle cx="686" cy="228" r="11" fill="#ef4444"/><text x="686" y="232" fill="#fff" font-size="10" text-anchor="middle">15</text>
  <circle cx="714" cy="228" r="11" fill="#1e40af"/><text x="714" y="232" fill="#fff" font-size="10" text-anchor="middle">16</text>
  <circle cx="742" cy="228" r="11" fill="#1e40af"/><text x="742" y="232" fill="#fff" font-size="10" text-anchor="middle">17</text>
  <circle cx="770" cy="228" r="11" fill="#1e40af"/><text x="770" y="232" fill="#fff" font-size="10" text-anchor="middle">18</text>

  <!-- Row 3: 19-23 (active), rest not visited -->
  <circle cx="546" cy="258" r="11" fill="#1e40af"/><text x="546" y="262" fill="#fff" font-size="10" text-anchor="middle">19</text>
  <circle cx="574" cy="258" r="11" fill="#1e40af"/><text x="574" y="262" fill="#fff" font-size="10" text-anchor="middle">20</text>
  <circle cx="602" cy="258" r="11" fill="#f59e0b"/><text x="602" y="262" fill="#fff" font-size="10" text-anchor="middle">21</text>
  <circle cx="630" cy="258" r="11" fill="#1e40af"/><text x="630" y="262" fill="#fff" font-size="10" text-anchor="middle">22</text>
  <circle cx="658" cy="258" r="11" fill="none" stroke="#3b82f6" stroke-width="2"/><text x="658" y="262" fill="#3b82f6" font-size="10" font-weight="700" text-anchor="middle">23</text>
  <circle cx="686" cy="258" r="11" fill="#e2e8f0"/><text x="686" y="262" fill="#94a3b8" font-size="10" text-anchor="middle">24</text>
  <circle cx="714" cy="258" r="11" fill="#e2e8f0"/><text x="714" y="262" fill="#94a3b8" font-size="10" text-anchor="middle">25</text>
  <circle cx="742" cy="258" r="11" fill="#e2e8f0"/><text x="742" y="262" fill="#94a3b8" font-size="10" text-anchor="middle">26</text>
  <circle cx="770" cy="258" r="11" fill="#e2e8f0"/><text x="770" y="262" fill="#94a3b8" font-size="10" text-anchor="middle">27</text>

  <!-- Remaining rows (not visited) -->
  <circle cx="546" cy="288" r="11" fill="#e2e8f0"/><circle cx="574" cy="288" r="11" fill="#e2e8f0"/><circle cx="602" cy="288" r="11" fill="#e2e8f0"/><circle cx="630" cy="288" r="11" fill="#e2e8f0"/><circle cx="658" cy="288" r="11" fill="#e2e8f0"/><circle cx="686" cy="288" r="11" fill="#e2e8f0"/><circle cx="714" cy="288" r="11" fill="#e2e8f0"/><circle cx="742" cy="288" r="11" fill="#e2e8f0"/><circle cx="770" cy="288" r="11" fill="#e2e8f0"/>
  <circle cx="546" cy="318" r="11" fill="#e2e8f0"/><circle cx="574" cy="318" r="11" fill="#e2e8f0"/><circle cx="602" cy="318" r="11" fill="#e2e8f0"/><circle cx="630" cy="318" r="11" fill="#e2e8f0"/><circle cx="658" cy="318" r="11" fill="#e2e8f0"/>

  <!-- Score prediction panel -->
  <rect x="526" y="344" width="258" height="90" rx="8" fill="#1e293b"/>
  <text x="540" y="364" fill="rgba(255,255,255,0.7)" font-size="11">PREDICTED SCORE</text>
  <text x="540" y="392" fill="#ffffff" font-size="26" font-weight="800">284 / 360</text>
  <text x="540" y="412" fill="#10b981" font-size="11">↑ 78.9% · Rank estimate: ~1,200</text>
  <rect x="538" y="420" width="100" height="7" rx="3" fill="rgba(255,255,255,0.1)"/>
  <rect x="538" y="420" width="79" height="7" rx="3" fill="#10b981"/>
</svg>
